<svg width="23" height="20" viewBox="0 0 23 20" fill="none" xmlns="http://www.w3.org/2000/svg">
<path d="M22.5 0.9375V5.93687C22.5 6.7752 21.4859 7.18609 20.8996 6.5998L19.5048 5.20492L9.99215 14.7175C9.62602 15.0837 9.03246 15.0837 8.66633 14.7175L7.78246 13.8337C7.41633 13.4675 7.41633 12.8739 7.78246 12.5079L17.2952 2.99516L15.9005 1.60043C15.3118 1.01172 15.7287 0 16.5634 0H21.5625C22.0803 0 22.5 0.419727 22.5 0.9375ZM15.8996 10.5779L15.2746 11.2029C15.1875 11.2899 15.1185 11.3933 15.0713 11.507C15.0242 11.6208 15 11.7427 15 11.8658V17.5H2.5V5H12.8125C13.0611 4.99999 13.2996 4.90122 13.4754 4.72543L14.1004 4.10043C14.691 3.5098 14.2727 2.5 13.4375 2.5H1.875C0.839453 2.5 0 3.33945 0 4.375V18.125C0 19.1605 0.839453 20 1.875 20H15.625C16.6605 20 17.5 19.1605 17.5 18.125V11.2408C17.5 10.4055 16.4902 9.98727 15.8996 10.5779Z" fill="black"/>
</svg>
