<svg width="75" height="75" viewBox="0 0 75 75" fill="none" xmlns="http://www.w3.org/2000/svg">
<path d="M37.5 0C30.0832 0 22.833 2.19934 16.6661 6.31989C10.4993 10.4404 5.69282 16.2971 2.85453 23.1494C0.016248 30.0016 -0.726377 37.5416 0.720569 44.8159C2.16751 52.0902 5.73904 58.772 10.9835 64.0165C16.228 69.261 22.9098 72.8325 30.1841 74.2794C37.4584 75.7264 44.9984 74.9837 51.8506 72.1455C58.7029 69.3072 64.5596 64.5007 68.6801 58.3339C72.8007 52.167 75 44.9168 75 37.5C74.9886 27.5579 71.0341 18.0262 64.0039 10.9961C56.9738 3.96593 47.4421 0.0113899 37.5 0ZM37.5 70.8353C30.9069 70.8353 24.4619 68.8802 18.9799 65.2173C13.4979 61.5544 9.22525 56.3481 6.70218 50.2569C4.17911 44.1656 3.51896 37.463 4.80521 30.9966C6.09146 24.5302 9.26634 18.5904 13.9284 13.9284C18.5904 9.26632 24.5302 6.09144 30.9966 4.80519C37.463 3.51894 44.1656 4.17909 50.2569 6.70216C56.3481 9.22523 61.5544 13.4979 65.2173 18.9799C68.8802 24.4618 70.8353 30.9069 70.8353 37.5C70.8251 46.3379 67.3096 54.8109 61.0603 61.0603C54.8109 67.3096 46.3379 70.825 37.5 70.8353ZM54.5904 37.3001C54.5823 37.2366 54.5707 37.1735 54.5557 37.1113C54.5418 37.0419 54.5321 36.9725 54.5126 36.9031C54.4932 36.8336 54.4724 36.8003 54.4516 36.7476C54.423 36.6699 54.3901 36.5939 54.353 36.5199C54.353 36.5088 54.3447 36.4977 54.3391 36.488C54.3169 36.4477 54.2878 36.4158 54.2628 36.3783C54.2207 36.3093 54.1743 36.243 54.1239 36.1798C54.0795 36.1257 54.0282 36.0771 53.9851 36.0285C53.9421 35.9799 53.8963 35.9369 53.8463 35.8897C53.7776 35.8344 53.7053 35.7838 53.6297 35.7383C53.5978 35.7189 53.57 35.6925 53.5367 35.6731L29.0457 22.0602C28.7289 21.884 28.3715 21.7936 28.0089 21.7979C27.6464 21.8022 27.2912 21.9011 26.9787 22.0848C26.6661 22.2685 26.4069 22.5307 26.2267 22.8453C26.0465 23.16 25.9516 23.5162 25.9514 23.8788V51.1212C25.9516 51.4838 26.0465 51.84 26.2267 52.1547C26.4069 52.4693 26.6661 52.7314 26.9787 52.9152C27.2912 53.0989 27.6464 53.1978 28.0089 53.2021C28.3715 53.2064 28.7289 53.116 29.0457 52.9398L53.5326 39.32L53.5451 39.3102C53.57 39.2963 53.5909 39.2769 53.6159 39.2616C53.7346 39.1883 53.8454 39.1027 53.9463 39.0062C53.9808 38.9737 54.0137 38.9394 54.0448 38.9035C54.14 38.801 54.2242 38.6889 54.2961 38.5689C54.3086 38.5481 54.3266 38.5342 54.3391 38.512C54.3516 38.4898 54.3474 38.4912 54.353 38.4801C54.3901 38.4061 54.423 38.3301 54.4516 38.2524C54.4724 38.1997 54.496 38.1497 54.5126 38.0969C54.5293 38.0442 54.5418 37.9581 54.5557 37.8887C54.5707 37.8264 54.5823 37.7634 54.5904 37.6999C54.5941 37.5667 54.5941 37.4333 54.5904 37.3001ZM30.1161 37.5V27.4201L48.2365 37.5L30.1161 47.5799V37.5Z" fill="#75BEEB"/>
</svg>
