<svg width="103" height="75" viewBox="0 0 103 75" fill="none" xmlns="http://www.w3.org/2000/svg">
<path d="M67.1133 2.9654V60.2091C67.1133 62.4814 64.6596 63.9068 62.6857 62.7812C52.23 56.8186 42.2161 52.2962 32.6477 49.2096L31.211 48.7604C31.1847 50.9532 31.2478 53.1394 31.4003 55.3192C31.5264 57.123 31.6831 58.498 31.9169 59.9078C32.111 61.0786 32.2928 61.9747 32.8564 64.6101C33.8939 69.4609 30.2006 73.9536 24.9523 74.8435C24.5943 74.9043 24.233 74.9474 23.8702 74.9728C18.5981 75.3414 13.8702 71.931 13.5285 67.0453C13.5033 66.6847 13.5036 66.3227 13.5293 65.9616C13.7206 63.2737 13.776 62.3608 13.8053 61.1743C13.8405 59.7457 13.8044 58.3622 13.6782 56.5584C13.4202 52.868 12.906 49.195 12.1354 45.5385C12.0578 45.1701 12.0523 44.8033 12.1094 44.4527C9.02686 44.0029 5.90306 43.6594 2.73977 43.4225C1.19462 43.3068 0 42.0194 0 40.4699V22.7046C0 21.1305 1.23162 19.8316 2.80347 19.7479C12.3105 19.2418 22.258 17.3165 32.6477 13.965C43.0632 10.6051 53.061 6.08999 62.6442 0.41743C64.618 -0.750875 67.1133 0.671798 67.1133 2.9654ZM18.1561 45.4476L18.2673 45.9996C18.9086 49.3666 19.3481 52.7487 19.5856 56.1453C19.7243 58.1288 19.7653 59.6978 19.7253 61.3204C19.6929 62.6324 19.6343 63.5977 19.4361 66.3821C19.4301 66.4659 19.4301 66.5493 19.4359 66.6322C19.531 67.9928 21.2336 69.2209 23.4572 69.0654C23.6267 69.0536 23.7954 69.0334 23.9623 69.0051C26.1067 68.6415 27.3416 67.1393 27.0656 65.8486C26.4817 63.1184 26.2895 62.171 26.0748 60.8764C25.8094 59.2751 25.6316 57.7157 25.4929 55.7322C25.2923 52.8635 25.2358 49.9848 25.3234 47.0966C22.9655 46.4903 20.5781 45.953 18.1658 45.4831L18.1561 45.4476ZM79.8834 46.1058L80.1042 46.3134L91.0493 57.6964C92.1827 58.8752 92.1459 60.7495 90.9671 61.8829C89.8621 62.9455 88.1456 62.9796 87.0015 62.0084L86.7806 61.8008L75.8356 50.4178C74.7022 49.239 74.739 47.3647 75.9177 46.2313C77.0228 45.1687 78.7392 45.1346 79.8834 46.1058ZM61.1916 8.06207C52.6005 12.7781 43.6912 16.6248 34.4657 19.6007C28.4432 21.5435 22.5474 23.0308 16.7784 24.0616L16.7812 39.2052C22.8186 40.2622 28.7138 41.7183 34.4657 43.5738C43.0695 46.3492 51.9774 50.2195 61.1916 55.1819V8.06207ZM10.858 24.9647C9.20182 25.1734 7.55639 25.3432 5.92176 25.4742V37.7489C7.57757 37.905 9.22327 38.0895 10.8589 38.3024L10.858 24.9647ZM99.683 27.6394C101.318 27.6394 102.644 28.965 102.644 30.6003C102.644 32.2355 101.318 33.5612 99.683 33.5612H83.8917C82.2564 33.5612 80.9308 32.2355 80.9308 30.6003C80.9308 28.965 82.2564 27.6394 83.8917 27.6394H99.683ZM90.9671 0.831082C92.1459 1.96448 92.1827 3.83885 91.0493 5.0176L80.1042 16.4006C78.9708 17.5794 77.0965 17.6161 75.9177 16.4827C74.739 15.3493 74.7022 13.475 75.8356 12.2962L86.7806 0.913204C87.914 -0.265547 89.7884 -0.302315 90.9671 0.831082Z" fill="#75BEEB"/>
</svg>
