<svg width="97" height="75" viewBox="0 0 97 75" fill="none" xmlns="http://www.w3.org/2000/svg">
<path d="M93.8222 52.1459H87.2113V40.3243C87.2113 38.9939 86.136 37.9186 84.8056 37.9186H50.5196V28.2814C57.2339 27.1338 62.3653 21.2856 62.3653 14.2513C62.3653 6.39434 55.9709 0 48.1139 0C40.2521 0 33.8578 6.39434 33.8578 14.2513C33.8578 21.2904 38.9939 27.1338 45.7082 28.2814V37.9186H11.4222C10.0919 37.9186 9.01655 38.9939 9.01655 40.3243V52.1459H2.4057C1.07535 52.1459 0 53.226 0 54.5516V72.5943C0 73.9247 1.07535 75 2.4057 75H20.4436C21.774 75 22.8493 73.9247 22.8493 72.5943V54.5516C22.8493 53.226 21.774 52.1459 20.4436 52.1459H13.8279V42.73H45.7082V52.1459H39.0926C37.7622 52.1459 36.6869 53.226 36.6869 54.5516V72.5943C36.6869 73.9247 37.7622 75 39.0926 75H57.1353C58.4608 75 59.541 73.9247 59.541 72.5943V54.5516C59.541 53.226 58.4608 52.1459 57.1353 52.1459H50.5196V42.73H82.3999V52.1459H75.7843C74.4539 52.1459 73.3786 53.226 73.3786 54.5516V72.5943C73.3786 73.9247 74.4539 75 75.7843 75H93.8222C95.1525 75 96.2279 73.9247 96.2279 72.5943V54.5516C96.2279 53.226 95.1525 52.1459 93.8222 52.1459ZM18.0379 70.1886H4.81139V56.9573H18.0379V70.1886ZM54.7296 70.1886H41.4983V56.9573H54.7296V70.1886ZM38.6692 14.2513C38.6692 9.04542 42.908 4.81139 48.1139 4.81139C53.3199 4.81139 57.5539 9.04542 57.5539 14.2513C57.5539 19.4573 53.3199 23.6913 48.1139 23.6913C42.908 23.6913 38.6692 19.4573 38.6692 14.2513ZM91.4165 70.1886H78.1899V56.9573H91.4165V70.1886Z" fill="#75BEEB"/>
</svg>
