<svg width="25" height="20" viewBox="0 0 25 20" fill="none" xmlns="http://www.w3.org/2000/svg">
<path d="M22.123 4.98436C22.1387 5.2031 22.1387 5.42188 22.1387 5.64062C22.1387 12.3125 17.0538 20 7.76027 20C4.89709 20 2.23734 19.1718 0 17.7344C0.406803 17.7812 0.797906 17.7969 1.22036 17.7969C3.58282 17.7969 5.75761 17 7.49428 15.6406C5.27259 15.5938 3.41075 14.1406 2.76926 12.1406C3.0822 12.1875 3.3951 12.2187 3.72369 12.2187C4.1774 12.2187 4.63116 12.1562 5.05356 12.0469C2.73801 11.5781 1.00128 9.54687 1.00128 7.09374V7.03126C1.67402 7.40627 2.45637 7.64064 3.28553 7.67185C1.92436 6.76558 1.03259 5.21873 1.03259 3.46871C1.03259 2.53123 1.28287 1.67186 1.72098 0.921852C4.20865 3.98435 7.94799 5.98432 12.141 6.2031C12.0628 5.8281 12.0158 5.43752 12.0158 5.04688C12.0158 2.2656 14.2688 3.52264e-08 17.0694 3.52264e-08C18.5244 3.52264e-08 19.8387 0.609373 20.7618 1.59375C21.9039 1.37501 22.9991 0.953114 23.9692 0.375003C23.5936 1.5469 22.7957 2.53128 21.7475 3.15624C22.7644 3.04691 23.7501 2.7656 24.6575 2.37502C23.9692 3.37498 23.1087 4.26557 22.123 4.98436Z" fill="black"/>
</svg>
