<svg width="64" height="75" viewBox="0 0 64 75" fill="none" xmlns="http://www.w3.org/2000/svg">
<path d="M61.3688 9.9502H61.0313L54.5099 3.42845C54.7952 3.15167 54.9913 2.79602 55.0731 2.40708C55.155 2.01814 55.1189 1.61362 54.9694 1.24534C54.8199 0.87706 54.5639 0.561796 54.2341 0.339937C53.9043 0.118078 53.5158 -0.000270227 53.1184 5.46923e-05H5.99462C5.19458 -0.00337414 4.40205 0.154454 3.66435 0.464114C2.92666 0.773774 2.25893 1.22892 1.70104 1.80236C1.14314 2.37581 0.706532 3.0558 0.41727 3.80173C0.128008 4.54766 -0.0079723 5.34423 0.0174506 6.14388C0.0123884 6.20196 0 6.25804 0 6.31706V66.8797C0 66.9432 0.0133213 67.003 0.0186499 67.065C0.0177674 68.4672 0.507939 69.8255 1.40407 70.9041C2.46522 72.1873 3.79706 73.2201 5.30418 73.9282C6.81131 74.6363 8.4564 75.0023 10.1216 75H61.369C61.8989 75 62.4072 74.7895 62.7819 74.4147C63.1566 74.04 63.3672 73.5317 63.3672 73.0018V11.9484C63.3672 11.686 63.3155 11.4261 63.215 11.1837C63.1146 10.9413 62.9674 10.721 62.7819 10.5354C62.5963 10.3499 62.376 10.2027 62.1335 10.1023C61.8911 10.0019 61.6312 9.95018 61.3688 9.9502ZM4.18571 5.14397C4.34808 4.80139 4.60415 4.5118 4.92428 4.30872C5.24441 4.10564 5.61551 3.99738 5.99462 3.99647H49.4263L55.381 9.95113H10.1609C9.07111 9.9527 7.99449 9.71313 7.00822 9.24958C6.02196 8.78603 5.15047 8.10999 4.45627 7.26993C4.21469 6.97746 4.06103 6.62245 4.01314 6.24613C3.96525 5.86982 4.02509 5.48764 4.18571 5.14397ZM59.3706 71.003H10.1215C9.03738 71.0032 7.96678 70.7627 6.98692 70.2989C6.00705 69.8352 5.14235 69.1597 4.4552 68.3212C4.13939 67.9412 3.97619 67.4574 3.99735 66.9637C3.99828 66.9427 3.99349 66.9228 3.99375 66.9019L3.99602 66.8791V12.1274C5.26282 12.9414 6.67917 13.4947 8.16228 13.7549V63.4641C8.16228 63.994 8.3728 64.5023 8.74754 64.877C9.12228 65.2517 9.63053 65.4623 10.1605 65.4623C10.6904 65.4623 11.1987 65.2517 11.5734 64.877C11.9482 64.5023 12.1587 63.994 12.1587 63.4641V13.9466H59.3697L59.3706 71.003ZM46.7609 35.8287H24.9372C24.4073 35.8287 23.899 35.6182 23.5243 35.2435C23.1495 34.8687 22.939 34.3605 22.939 33.8305C22.939 33.3006 23.1495 32.7923 23.5243 32.4176C23.899 32.0428 24.4073 31.8323 24.9372 31.8323H46.7609C47.2908 31.8323 47.7991 32.0428 48.1738 32.4176C48.5485 32.7923 48.7591 33.3006 48.7591 33.8305C48.7591 34.3605 48.5485 34.8687 48.1738 35.2435C47.7991 35.6182 47.2908 35.8287 46.7609 35.8287ZM18.4796 25.5046C18.4796 24.9747 18.6901 24.4664 19.0648 24.0917C19.4396 23.717 19.9478 23.5064 20.4778 23.5064H51.2217C51.7516 23.5064 52.2599 23.717 52.6346 24.0917C53.0093 24.4664 53.2199 24.9747 53.2199 25.5046C53.2199 26.0346 53.0093 26.5429 52.6346 26.9176C52.2599 27.2923 51.7516 27.5029 51.2217 27.5029H20.4778C19.9478 27.5029 19.4396 27.2923 19.0648 26.9176C18.6901 26.5429 18.4796 26.0346 18.4796 25.5046ZM52.5538 56.0239C53.0838 56.0239 53.592 56.2345 53.9667 56.6092C54.3415 56.9839 54.552 57.4922 54.552 58.0221C54.552 58.5521 54.3415 59.0604 53.9667 59.4351C53.592 59.8098 53.0838 60.0204 52.5538 60.0204H46.433C45.9031 60.0204 45.3948 59.8098 45.0201 59.4351C44.6453 59.0604 44.4348 58.5521 44.4348 58.0221C44.4348 57.4922 44.6453 56.9839 45.0201 56.6092C45.3948 56.2345 45.9031 56.0239 46.433 56.0239H52.5538ZM54.552 64.6828C54.552 65.2128 54.3415 65.721 53.9667 66.0958C53.592 66.4705 53.0838 66.681 52.5538 66.681H46.433C45.9031 66.681 45.3948 66.4705 45.0201 66.0958C44.6453 65.721 44.4348 65.2128 44.4348 64.6828C44.4348 64.1529 44.6453 63.6446 45.0201 63.2699C45.3948 62.8952 45.9031 62.6846 46.433 62.6846H52.5538C53.0837 62.6846 53.5919 62.8951 53.9666 63.2698C54.3413 63.6444 54.5519 64.1525 54.552 64.6824V64.6828Z" fill="#75BEEB"/>
</svg>
